<?xml version="1.0" standalone="no"?>
<!DOCTYPE svg PUBLIC "-//W3C//DTD SVG 20010904//EN"
 "http://www.w3.org/TR/2001/REC-SVG-20010904/DTD/svg10.dtd">
<svg version="1.0" xmlns="http://www.w3.org/2000/svg"
 width="1200.000000pt" height="675.000000pt" viewBox="0 0 1200.000000 675.000000"
 preserveAspectRatio="xMidYMid meet">

<g transform="translate(0.000000,675.000000) scale(0.100000,-0.100000)"
fill="#000000" stroke="none">
<path d="M8170 5529 l0 -290 48 3 47 3 3 288 2 287 -50 0 -50 0 0 -291z"/>
<path d="M7822 5493 l3 -248 48 -3 47 -3 0 250 0 251 -50 0 -50 0 2 -247z"/>
<path d="M7478 5598 c-3 -7 -4 -89 -4 -183 l1 -170 50 0 50 0 3 183 2 182 -49
0 c-30 0 -51 -5 -53 -12z"/>
<path d="M9055 5476 c-61 -27 -105 -101 -105 -176 0 -38 -1 -40 -32 -40 -42 0
-93 -31 -118 -72 -40 -66 -16 -156 52 -198 31 -19 51 -20 358 -20 308 0 327 1
358 20 70 43 78 136 17 197 -26 26 -41 33 -72 33 -32 0 -42 5 -56 29 -20 34
-68 66 -114 76 -25 5 -33 13 -38 36 -8 36 -57 94 -96 115 -35 17 -114 18 -154
0z"/>
<path d="M8000 5359 l0 -120 48 3 47 3 3 118 3 117 -51 0 -50 0 0 -121z"/>
<path d="M10340 5434 c-114 -18 -251 -74 -340 -139 -102 -75 -209 -213 -250
-323 -51 -135 -64 -301 -34 -435 34 -154 146 -334 265 -423 76 -57 147 -97
159 -89 26 16 5 42 -66 85 -85 50 -179 145 -232 233 -59 98 -84 188 -90 319
-7 176 29 301 123 433 103 144 266 250 438 282 79 15 87 19 87 40 0 23 -5 25
-60 17z"/>
<path d="M10444 5427 c-9 -25 4 -37 39 -37 67 -1 176 -31 267 -76 78 -39 109
-61 175 -128 139 -140 194 -264 202 -453 7 -141 -12 -231 -75 -356 -36 -72
-62 -108 -121 -167 -42 -41 -104 -91 -138 -110 -63 -35 -70 -44 -54 -68 10
-17 47 0 137 64 122 86 217 216 271 369 26 74 28 91 28 230 -1 136 -3 157 -28
230 -94 282 -339 478 -634 511 -52 5 -64 4 -69 -9z"/>
<path d="M7652 5303 l3 -58 45 0 45 0 3 58 3 57 -51 0 -51 0 3 -57z"/>
<path d="M5420 5110 l0 -230 253 2 252 3 3 221 2 221 -136 6 c-76 4 -190 7
-256 7 l-118 0 0 -230z m428 151 c9 -1 12 -39 12 -156 l0 -155 -185 0 -185 0
0 155 0 154 103 3 c88 3 214 2 255 -1z"/>
<path d="M5560 5060 c0 -19 7 -20 115 -20 108 0 115 1 115 20 0 19 -7 20 -115
20 -108 0 -115 -1 -115 -20z"/>
<path d="M6042 5108 l3 -223 253 -3 c235 -2 252 -1 253 15 4 55 4 410 1 421
-3 9 -64 12 -258 12 l-254 0 2 -222z m435 153 c8 -1 11 -42 10 -153 l-2 -153
-185 0 -185 0 -3 145 c-1 79 -1 149 1 155 4 8 282 13 364 6z"/>
<path d="M6180 5125 l0 -75 30 0 c23 0 30 -4 30 -20 0 -19 7 -20 95 -20 l95 0
0 70 0 70 -30 0 c-25 0 -30 4 -30 25 0 25 0 25 -95 25 l-95 0 0 -75z m108 28
c-46 -4 -48 -6 -48 -34 0 -19 -5 -29 -15 -29 -10 0 -15 11 -15 35 l0 35 63 -2
c56 -1 57 -2 15 -5z m42 -50 c0 -8 -12 -13 -30 -13 -29 0 -38 9 -24 23 12 11
54 3 54 -10z m60 -28 l0 -35 -62 2 -63 1 50 6 c45 5 50 9 53 34 5 39 22 33 22
-8z"/>
<path d="M6670 5105 l0 -225 253 2 252 3 3 223 2 222 -255 0 -255 0 0 -225z
m435 4 l0 -154 -182 -3 -183 -2 0 154 c0 94 4 156 10 158 5 2 88 3 182 2 l173
0 0 -155z"/>
<path d="M6850 5200 c0 -6 9 -29 20 -50 l20 -40 -20 -40 c-24 -47 -25 -60 -5
-60 9 0 23 16 32 35 9 19 20 35 23 35 3 0 14 -16 23 -35 11 -23 24 -35 37 -35
25 0 25 0 -2 55 l-22 45 22 45 c27 55 27 55 2 55 -13 0 -26 -12 -37 -35 l-17
-36 -18 36 c-12 22 -26 35 -38 35 -11 0 -20 -5 -20 -10z"/>
<path d="M10301 5214 c-267 -72 -442 -349 -387 -614 9 -41 31 -107 51 -146 48
-97 175 -228 205 -209 22 13 8 43 -34 73 -89 64 -159 189 -178 318 -21 144 30
292 137 400 68 68 157 117 246 136 51 10 59 15 59 35 0 27 -19 29 -99 7z"/>
<path d="M10442 5208 c3 -20 11 -24 68 -31 141 -17 299 -130 363 -258 44 -88
62 -198 48 -288 -19 -125 -91 -251 -179 -316 -23 -16 -42 -38 -42 -47 -1 -79
151 56 219 194 108 219 59 471 -122 634 -85 76 -223 134 -320 134 -34 0 -38
-3 -35 -22z"/>
<path d="M10313 5019 c-75 -29 -153 -104 -189 -181 -23 -52 -28 -77 -29 -143
0 -71 4 -88 32 -146 18 -36 41 -73 52 -83 18 -17 19 -17 26 4 5 15 -3 42 -26
87 -29 57 -33 76 -33 137 0 142 93 263 222 291 25 5 32 12 32 31 0 30 -16 30
-87 3z"/>
<path d="M10442 5019 c2 -20 10 -25 49 -30 90 -13 173 -77 220 -169 18 -35 23
-62 23 -120 1 -67 -3 -84 -32 -142 -24 -45 -32 -73 -27 -88 7 -21 8 -21 26 -4
11 10 34 47 51 83 28 55 33 76 33 140 0 99 -26 169 -87 236 -59 65 -132 105
-204 112 -54 6 -56 5 -52 -18z"/>
<path d="M9060 4805 c0 -69 3 -85 15 -85 11 0 15 12 16 43 l1 42 11 -42 c13
-56 41 -59 55 -5 l10 37 1 -37 c1 -31 5 -38 21 -38 18 0 20 7 20 86 l0 85 -27
-3 c-24 -3 -28 -9 -38 -53 -12 -52 -16 -49 -30 23 -5 25 -11 32 -31 32 -24 0
-24 -2 -24 -85z"/>
<path d="M9230 4805 l0 -85 44 0 c24 0 48 6 54 13 13 16 13 128 0 145 -6 6
-30 12 -54 12 l-44 0 0 -85z m70 34 c0 -10 -7 -19 -15 -19 -15 0 -21 31 -9 43
11 10 24 -3 24 -24z m8 -67 c3 -17 -2 -22 -17 -22 -16 0 -21 6 -21 26 0 33 33
30 38 -4z"/>
<path d="M9400 4810 c-45 -89 -45 -90 -27 -90 6 0 30 34 52 76 50 95 50 94 31
94 -10 0 -31 -31 -56 -80z"/>
<path d="M10345 4867 c-21 -12 -52 -41 -69 -64 -24 -34 -29 -53 -30 -100 -1
-79 26 -128 92 -173 l52 -34 0 -473 0 -473 -85 0 c-47 0 -85 3 -85 8 0 4 7
160 15 347 14 332 17 480 10 460 -2 -5 -25 -140 -50 -300 -25 -159 -57 -357
-70 -440 -13 -82 -58 -366 -100 -630 -42 -264 -103 -642 -135 -840 -106 -651
-104 -636 -89 -646 8 -5 32 -8 54 -7 l39 3 12 70 c6 39 31 193 55 343 l43 272
436 0 437 0 11 -68 c6 -37 29 -186 52 -332 23 -146 44 -271 46 -277 4 -15 72
-17 93 -4 16 10 31 -92 -254 1686 -91 567 -170 1063 -176 1103 -7 40 -14 71
-17 68 -4 -5 11 -452 24 -703 l6 -113 -86 0 -86 0 0 473 0 473 52 34 c65 44
93 95 93 170 -1 92 -70 176 -155 187 l-40 6 0 -82 c0 -74 -2 -81 -20 -81 -18
0 -20 7 -20 80 0 44 -3 80 -7 80 -5 0 -26 -10 -48 -23z m331 -1441 c10 -25 82
-491 77 -498 -2 -5 -146 -8 -320 -8 l-315 0 5 23 c3 12 22 129 43 260 l38 237
233 0 c191 0 235 -3 239 -14z m135 -831 c20 -121 39 -237 42 -257 l6 -38 -420
0 -419 0 5 23 c3 12 21 123 40 247 19 124 37 231 40 238 3 10 76 12 337 10
l333 -3 36 -220z"/>
<path d="M9467 4843 c-14 -13 -6 -38 20 -65 27 -29 26 -51 -2 -28 -18 15 -30
7 -21 -15 4 -11 16 -15 38 -13 43 4 50 37 14 66 -25 19 -35 42 -18 42 4 0 13
-5 19 -11 13 -13 28 5 18 21 -7 11 -58 14 -68 3z"/>
<path d="M5990 4715 c-60 -19 -123 -74 -152 -133 -22 -45 -23 -58 -26 -314
l-3 -266 -230 -133 c-221 -127 -264 -159 -283 -212 -5 -15 -12 -17 -38 -10
-129 33 -255 -34 -288 -153 -26 -92 13 -199 92 -252 37 -24 51 -27 123 -27 72
0 86 3 124 28 47 31 76 73 93 132 l11 40 56 1 c51 0 67 7 196 81 l140 81 5
-422 c4 -377 7 -425 23 -461 23 -50 70 -100 122 -128 40 -22 47 -22 623 -25
l582 -3 0 -144 c0 -111 -3 -145 -13 -145 -42 0 -194 -24 -261 -41 -174 -44
-262 -127 -235 -221 20 -71 102 -124 258 -166 87 -23 114 -25 296 -26 172 0
213 3 295 22 126 29 213 72 251 124 98 136 -60 260 -375 297 -49 6 -91 13 -94
16 -7 6 -10 242 -4 267 4 16 45 18 586 20 574 3 582 3 621 25 47 25 85 64 111
113 15 28 20 65 24 190 l5 155 138 3 137 3 0 274 0 275 -140 0 c-133 0 -140 1
-140 20 0 19 8 20 468 22 l467 3 0 355 0 355 -467 3 -468 2 0 98 c0 85 -3 105
-26 150 -32 64 -83 108 -148 127 -72 22 -2387 21 -2456 0z m2453 -124 c50 -31
67 -74 67 -170 l0 -81 -765 0 -765 0 0 -360 0 -360 765 0 c758 0 765 0 765
-20 0 -20 -7 -20 -765 -20 l-765 0 0 -275 0 -275 763 -2 762 -3 3 -130 c3
-144 -7 -180 -61 -219 -28 -21 -31 -21 -1226 -21 -1137 0 -1198 1 -1224 18
-16 10 -37 32 -47 50 -19 31 -20 51 -18 481 l3 449 82 48 82 47 61 -25 c81
-32 182 -34 245 -3 88 43 155 156 158 269 2 45 -1 56 -15 59 -9 2 -69 -27
-134 -65 l-117 -67 -66 36 -66 36 0 83 0 84 115 66 c136 79 147 98 76 128
-187 81 -354 23 -414 -144 -8 -24 -11 6 -11 140 -1 152 1 173 19 202 20 34 49
53 93 62 15 3 554 6 1197 5 l1168 -1 35 -22z m-2148 -278 c11 -7 -11 -24 -88
-69 l-102 -60 -3 -111 -3 -111 93 -54 c51 -29 95 -54 99 -56 3 -1 50 23 103
53 54 31 100 54 103 51 11 -11 -16 -82 -48 -125 -17 -25 -48 -50 -72 -62 -68
-30 -120 -24 -252 31 -28 12 -35 9 -108 -34 -43 -25 -81 -46 -83 -46 -2 0 -4
10 -4 23 0 15 11 28 34 41 19 10 37 25 40 33 7 16 -15 62 -50 110 -31 41 -30
70 1 95 20 15 25 29 25 62 0 99 51 193 124 228 32 15 55 18 108 14 37 -3 74
-9 83 -13z m3155 -333 l0 -250 -1180 0 -1180 0 0 250 0 250 1180 0 1180 0 0
-250z m-3642 -71 c-2 -17 -57 -53 -226 -151 -123 -71 -226 -127 -230 -124 -17
17 53 69 238 176 113 66 209 119 213 120 5 0 7 -10 5 -21z m2 -241 c-1 -19
-28 -39 -153 -110 -110 -64 -161 -88 -186 -88 -24 0 -32 3 -25 10 13 13 346
208 357 209 4 1 7 -9 7 -21z m-566 -74 c9 -3 16 -10 16 -14 0 -5 -37 -30 -82
-56 -99 -57 -118 -72 -117 -93 1 -30 55 -106 77 -109 12 -2 62 21 118 53 53
30 98 54 100 52 2 -2 -1 -21 -7 -42 -22 -77 -114 -136 -191 -121 -160 30 -194
232 -54 317 31 19 107 26 140 13z m3544 -291 l-3 -168 -847 -3 -848 -2 0 170
0 170 850 0 850 0 -2 -167z m-1628 -1238 c0 -52 4 -69 20 -85 24 -24 53 -26
74 -4 19 19 18 14 20 89 l2 60 76 -2 c43 -1 105 -9 140 -18 80 -20 173 -66
173 -85 0 -43 -149 -92 -337 -111 -186 -19 -406 10 -520 68 -52 25 -58 41 -30
66 43 39 216 85 325 86 l57 1 0 -65z"/>
<path d="M6309 4191 c-55 -55 -36 -147 36 -171 69 -23 135 27 135 102 0 88
-108 132 -171 69z m112 -32 c27 -27 21 -66 -12 -92 -24 -17 -30 -18 -55 -6
-22 11 -30 22 -32 48 -6 62 55 94 99 50z"/>
<path d="M6306 3244 c-41 -41 -39 -106 5 -146 66 -62 169 -18 169 72 0 60 -41
100 -103 100 -35 0 -50 -6 -71 -26z m116 -31 c38 -34 11 -103 -40 -103 -53 0
-83 68 -46 104 20 21 63 20 86 -1z"/>
<path d="M7230 4078 c0 -7 7 -56 15 -108 8 -52 15 -99 15 -103 0 -5 14 -7 32
-5 29 3 33 7 44 53 8 35 12 42 13 23 0 -15 6 -39 11 -53 8 -21 16 -26 37 -23
26 3 28 8 39 73 27 168 27 157 2 153 -20 -3 -24 -11 -34 -78 -11 -80 -15 -75
-30 33 -5 40 -9 47 -29 47 -21 0 -24 -6 -30 -62 -10 -90 -18 -93 -30 -13 -9
61 -13 70 -33 73 -13 2 -22 -2 -22 -10z"/>
<path d="M7476 4058 c3 -18 11 -69 17 -113 12 -78 13 -80 41 -83 34 -4 46 10
46 58 0 44 17 28 22 -20 3 -31 7 -35 34 -38 32 -3 32 -3 42 60 6 35 14 87 18
116 6 48 5 52 -14 52 -17 0 -22 -8 -27 -47 -3 -27 -9 -61 -14 -78 -7 -26 -9
-19 -17 45 -8 71 -10 75 -34 75 -24 0 -25 -4 -34 -75 -10 -81 -16 -74 -31 33
-5 41 -9 47 -30 47 -21 0 -23 -4 -19 -32z"/>
<path d="M7724 4038 c4 -29 12 -81 18 -116 10 -63 11 -63 41 -60 28 3 32 7 42
53 l11 50 7 -53 c8 -53 8 -53 40 -50 32 3 32 3 44 83 7 44 15 95 18 113 5 28
3 32 -15 32 -24 0 -26 -5 -35 -85 -8 -69 -19 -58 -30 28 -6 51 -9 57 -29 57
-25 0 -36 -29 -36 -95 0 -60 -15 -47 -25 22 -9 61 -13 68 -34 71 -23 4 -24 2
-17 -50z"/>
<path d="M7955 3890 c-9 -15 4 -30 26 -30 12 0 19 7 19 20 0 21 -33 29 -45 10z"/>
<path d="M7392 3380 c-21 -9 -23 -14 -20 -87 3 -74 4 -78 30 -87 18 -7 35 -6
53 2 24 11 25 16 25 87 0 72 -1 76 -26 85 -30 12 -32 12 -62 0z m56 -64 c4
-52 -5 -86 -23 -86 -12 0 -15 14 -15 66 0 57 2 65 18 62 12 -2 18 -15 20 -42z"/>
<path d="M7261 3325 c-40 -71 -40 -85 3 -85 25 0 35 -5 39 -20 3 -11 10 -20
16 -20 19 0 27 41 23 113 -3 62 -5 67 -27 67 -18 0 -30 -13 -54 -55z m39 -35
c0 -20 -5 -30 -15 -30 -18 0 -19 14 -3 40 17 26 18 25 18 -10z"/>
<path d="M7532 3324 c-41 -72 -41 -84 2 -84 25 0 35 -5 39 -20 6 -25 25 -26
34 -2 4 9 11 21 17 25 8 6 7 10 -1 14 -9 3 -13 26 -13 64 0 55 -2 59 -23 59
-17 0 -31 -14 -55 -56z m38 -34 c0 -20 -5 -30 -15 -30 -18 0 -18 2 -3 35 15
32 18 32 18 -5z"/>
<path d="M2774 4026 c-68 -30 -104 -115 -86 -203 14 -66 46 -115 123 -182 74
-65 99 -104 99 -153 0 -44 -21 -68 -59 -68 -37 0 -52 20 -59 75 l-5 45 -53 0
-54 0 0 -48 c0 -109 67 -174 180 -174 109 0 162 51 168 161 5 92 -22 146 -119
232 -81 71 -115 130 -104 180 7 29 30 49 59 49 26 0 56 -38 56 -70 0 -30 1
-30 55 -30 l55 0 0 38 c-1 60 -32 118 -79 141 -47 24 -130 27 -177 7z"/>
<path d="M1252 3953 c5 -43 23 -202 41 -353 l32 -275 81 -3 82 -3 5 33 c3 18
11 87 18 153 6 66 15 126 19 133 3 7 14 -58 24 -144 9 -87 19 -161 22 -166 3
-4 38 -8 79 -8 l74 0 6 33 c7 40 61 507 71 605 l7 72 -51 0 c-59 0 -51 29 -83
-282 -13 -120 -26 -215 -30 -210 -3 4 -17 111 -29 237 -12 127 -24 236 -26
243 -2 8 -23 12 -58 12 -44 0 -56 -4 -60 -17 -2 -10 -15 -125 -27 -257 -14
-145 -26 -229 -30 -215 -4 13 -17 112 -28 219 -12 107 -24 212 -27 233 l-6 37
-57 0 -57 0 8 -77z"/>
<path d="M1872 3678 l3 -353 157 -3 157 -3 3 28 c2 16 1 40 -1 56 l-3 27 -99
0 -99 0 0 100 0 100 80 0 80 0 0 55 0 55 -80 0 -80 0 0 95 0 95 99 0 c61 0
101 4 103 11 2 5 2 28 0 50 l-4 39 -159 0 -159 0 2 -352z"/>
<path d="M2262 3678 l3 -353 125 0 c107 0 130 3 159 20 55 32 75 67 79 140 7
103 -4 151 -43 187 l-33 32 24 18 c44 35 59 163 26 228 -9 19 -32 45 -51 57
-31 21 -46 23 -163 23 l-128 0 2 -352z m222 230 c9 -12 16 -43 16 -68 0 -66
-20 -90 -76 -90 l-44 0 0 83 c0 46 3 87 7 90 3 4 23 7 44 7 28 0 42 -6 53 -22z
m6 -288 c16 -16 20 -33 20 -86 0 -92 -8 -104 -75 -104 l-55 0 0 98 c0 54 3
102 7 105 15 15 83 7 103 -13z"/>
<path d="M3100 3675 l0 -356 58 3 57 3 3 353 2 352 -60 0 -60 0 0 -355z"/>
<path d="M3270 3980 l0 -50 60 0 60 0 0 -305 0 -306 58 3 57 3 3 303 2 302 60
0 60 0 0 50 0 50 -180 0 -180 0 0 -50z"/>
<path d="M3682 3678 l3 -353 158 -3 157 -3 0 56 0 55 -100 0 -100 0 0 100 0
100 81 0 80 0 -3 53 -3 52 -77 3 -78 3 0 94 0 95 100 0 100 0 0 50 0 50 -160
0 -160 0 2 -352z"/>
<path d="M3943 3095 c-57 -25 -67 -60 -71 -244 -2 -90 -1 -185 3 -210 14 -93
110 -143 202 -106 59 24 77 55 77 140 l1 70 -42 3 -43 3 0 -45 c0 -69 -14 -96
-49 -96 -20 0 -34 7 -41 19 -6 12 -10 93 -10 195 0 169 1 175 22 190 29 20 34
20 58 -4 13 -13 20 -33 20 -60 l0 -40 45 0 45 0 0 48 c0 26 -8 63 -18 82 -31
62 -124 88 -199 55z"/>
<path d="M820 2815 l0 -285 40 0 40 0 0 182 c0 100 2 179 4 177 2 -2 16 -71
30 -154 15 -82 29 -163 32 -178 5 -26 8 -28 52 -25 l46 3 23 145 c35 226 41
230 42 28 l1 -178 45 0 45 0 0 285 0 285 -69 0 -69 0 -28 -180 c-15 -99 -31
-180 -34 -180 -4 0 -19 75 -35 167 -15 92 -30 173 -32 180 -4 9 -26 13 -69 13
l-64 0 0 -285z"/>
<path d="M1312 2843 c-24 -142 -46 -270 -49 -285 -5 -27 -4 -28 40 -28 l46 0
7 50 7 50 58 0 58 0 6 -37 c11 -62 12 -63 60 -63 36 0 45 3 45 18 0 9 -20 134
-45 277 -25 143 -45 263 -45 268 0 4 -33 7 -73 7 l-72 0 -43 -257z m147 -105
c1 -26 -2 -28 -39 -28 -22 0 -40 5 -40 10 0 17 30 203 37 230 4 18 11 -5 24
-80 10 -58 18 -117 18 -132z"/>
<path d="M1640 2815 l0 -285 45 0 45 0 0 285 0 285 -45 0 -45 0 0 -285z"/>
<path d="M1800 2815 l0 -285 45 0 45 0 1 193 0 192 54 -185 c30 -102 54 -188
55 -192 0 -5 23 -8 50 -8 l50 0 0 285 0 285 -39 0 c-22 0 -41 -5 -43 -12 -2
-7 -3 -75 -2 -151 1 -76 -2 -135 -6 -130 -4 4 -26 71 -47 148 l-40 140 -61 3
-62 3 0 -286z"/>
<path d="M2140 3060 l0 -40 50 0 50 0 0 -245 0 -245 50 0 50 0 0 244 0 245 48
3 c47 3 47 3 50 41 l3 37 -150 0 -151 0 0 -40z"/>
<path d="M2477 3093 c-3 -7 -2 -517 2 -550 1 -10 34 -13 131 -13 l130 0 0 40
0 39 -82 3 -83 3 -3 83 -3 82 66 0 65 0 0 40 0 39 -62 3 -63 3 -3 78 -3 77 86
0 85 0 0 40 0 40 -129 0 c-72 0 -131 -3 -134 -7z"/>
<path d="M2790 2815 l0 -285 45 0 45 0 2 193 3 192 55 -190 55 -190 50 0 50 0
3 283 2 282 -45 0 -44 0 -3 -157 -3 -158 -45 158 -44 157 -63 0 -63 0 0 -285z"/>
<path d="M3230 3094 c0 -3 -20 -126 -45 -274 -25 -148 -45 -273 -45 -279 0 -6
19 -11 44 -11 l43 0 7 50 7 50 58 0 59 0 7 -50 7 -50 50 0 c50 0 50 0 45 28
-3 15 -25 143 -48 285 l-44 257 -72 0 c-40 0 -73 -3 -73 -6z m94 -256 c9 -59
16 -112 16 -117 0 -6 -18 -11 -40 -11 -31 0 -40 4 -40 18 0 40 34 231 41 225
3 -5 14 -56 23 -115z"/>
<path d="M3510 2815 l0 -285 45 0 45 0 2 193 3 192 55 -193 55 -193 50 3 50 3
3 283 2 282 -45 0 -44 0 -3 -157 -3 -158 -45 157 -45 158 -62 0 -63 0 0 -285z"/>
<path d="M4212 2818 l3 -283 130 0 130 0 3 37 3 37 -83 3 -83 3 -3 83 -3 82
66 0 65 0 0 40 0 39 -62 3 -63 3 -3 77 -3 77 83 3 83 3 3 38 3 37 -136 0 -135
0 2 -282z"/>
<path d="M5190 3028 c-76 -52 -97 -123 -58 -197 32 -59 77 -83 146 -78 43 3
59 10 88 37 80 79 60 196 -43 249 -36 18 -97 13 -133 -11z"/>
<path d="M9063 2775 c-206 -45 -375 -206 -428 -411 -32 -122 -15 -285 41 -397
42 -83 48 -87 127 -87 l69 0 -30 35 c-76 86 -114 186 -114 304 -1 177 94 331
249 409 208 105 459 40 586 -151 59 -89 80 -166 75 -278 -4 -82 -10 -107 -37
-165 -17 -37 -48 -87 -67 -111 l-35 -43 25 0 c24 0 26 -3 26 -47 l1 -48 53 58
c158 170 190 418 84 637 -44 90 -160 206 -251 249 -121 58 -248 73 -374 46z"/>
<path d="M5218 2630 c-176 -54 -199 -278 -37 -360 102 -52 232 4 269 116 16
46 6 116 -21 160 -38 62 -145 105 -211 84z m82 -191 c0 -90 -2 -100 -17 -97
-15 3 -19 16 -21 72 -2 51 -7 73 -20 82 -9 7 -15 14 -12 16 67 44 70 41 70
-73z"/>
<path d="M9140 2386 l0 -163 -112 -108 c-92 -88 -110 -110 -101 -124 6 -9 15
-16 20 -16 5 0 64 52 131 115 l122 115 0 173 0 172 -30 0 -30 0 0 -164z"/>
<path d="M5191 2091 c-68 -64 -22 -181 71 -181 52 0 108 51 108 100 0 98 -108
147 -179 81z"/>
<path d="M5742 1874 c-123 -61 -197 -235 -172 -404 26 -183 135 -306 270 -304
162 1 282 182 267 399 -7 106 -37 181 -95 246 -82 91 -172 112 -270 63z m68
-139 l0 -105 -84 0 c-47 0 -87 4 -90 8 -3 5 8 35 23 68 27 57 64 99 106 122
42 24 45 17 45 -93z m116 84 c34 -21 79 -79 102 -132 23 -54 20 -57 -73 -57
-74 0 -85 2 -86 18 -1 18 -1 146 0 175 1 22 16 22 57 -4z m129 -257 c9 -30
-11 -144 -35 -201 -27 -62 -97 -128 -146 -137 -133 -25 -254 122 -254 308 l0
48 214 0 c200 0 215 -1 221 -18z"/>
<path d="M8090 1605 l0 -205 700 0 700 0 0 205 0 205 -700 0 -700 0 0 -205z
m1341 135 c0 -11 1 -58 1 -105 0 -47 -1 -105 -1 -130 l-1 -45 -645 0 -645 0 0
143 c0 79 3 146 6 150 4 3 294 6 645 6 628 0 639 0 640 -19z"/>
<path d="M8301 1666 c-7 -9 -11 -41 -9 -82 3 -65 5 -69 31 -78 17 -6 37 -6 55
0 25 9 27 13 30 78 3 80 -6 96 -58 96 -21 0 -43 -6 -49 -14z m67 -74 c3 -57 1
-62 -18 -62 -18 0 -20 6 -20 58 0 32 3 62 7 66 17 17 28 -5 31 -62z"/>
<path d="M8440 1630 c0 -43 3 -50 19 -50 11 0 21 5 23 12 7 21 38 0 38 -27 0
-31 -28 -45 -42 -22 -13 23 -38 21 -38 -3 0 -39 74 -54 103 -22 38 42 9 120
-40 107 -20 -5 -24 -2 -21 12 2 12 14 19 36 21 53 5 36 22 -23 22 l-55 0 0
-50z"/>
<path d="M8660 1660 c-6 -11 -8 -25 -5 -30 10 -17 32 -11 38 10 6 24 32 27 41
4 4 -10 -9 -31 -40 -60 -61 -60 -57 -78 19 -82 46 -2 57 0 57 13 0 11 -10 15
-35 15 -43 0 -44 13 -4 42 38 28 53 62 39 89 -15 28 -95 27 -110 -1z"/>
<path d="M8811 1666 c-7 -9 -11 -41 -9 -82 3 -65 5 -69 31 -78 17 -6 37 -6 55
0 25 9 27 13 30 78 3 80 -6 96 -58 96 -21 0 -43 -6 -49 -14z m67 -74 c3 -57 1
-62 -18 -62 -18 0 -20 6 -20 58 0 32 3 62 7 66 17 17 28 -5 31 -62z"/>
<path d="M9020 1630 c0 -51 12 -64 37 -39 18 18 43 2 43 -26 0 -31 -28 -45
-45 -22 -18 24 -37 21 -33 -5 4 -32 51 -47 86 -27 55 30 33 129 -25 114 -20
-5 -24 -2 -21 12 2 12 14 19 36 21 53 5 36 22 -23 22 l-55 0 0 -50z"/>
<path d="M9172 1668 c-13 -13 -16 -56 -6 -82 4 -10 18 -16 40 -16 27 0 34 -4
34 -20 0 -13 -7 -20 -20 -20 -11 0 -20 5 -20 10 0 6 -9 10 -21 10 -27 0 -20
-21 12 -39 34 -19 77 -7 89 24 13 35 6 125 -11 136 -20 13 -83 11 -97 -3z m63
-44 c0 -19 -5 -29 -15 -29 -16 0 -25 28 -16 51 10 25 31 10 31 -22z"/>
<path d="M8585 1520 c-8 -12 20 -24 35 -15 6 3 8 11 5 16 -8 12 -32 12 -40 -1z"/>
<path d="M8950 1514 c0 -9 7 -14 17 -12 25 5 28 28 4 28 -12 0 -21 -6 -21 -16z"/>
</g>
</svg>
